<svg width="38" height="25" viewBox="0 0 38 25" fill="none" xmlns="http://www.w3.org/2000/svg">
<g clip-path="url(#clip0_6701_2056)">
<path opacity="0.07" d="M35 0.777344H3C1.3 0.777344 0 2.07734 0 3.77734V21.7773C0 23.4773 1.4 24.7773 3 24.7773H35C36.7 24.7773 38 23.4773 38 21.7773V3.77734C38 2.07734 36.6 0.777344 35 0.777344Z" fill="black"/>
<path d="M35 1.77734C36.1 1.77734 37 2.67734 37 3.77734V21.7773C37 22.8773 36.1 23.7773 35 23.7773H3C1.9 23.7773 1 22.8773 1 21.7773V3.77734C1 2.67734 1.9 1.77734 3 1.77734H35Z" fill="#006FCF"/>
<path d="M22.0117 20.7135V12.2925L36.9997 12.3055V14.6315L35.2677 16.4835L36.9997 18.3505V20.7255H34.2337L32.7637 19.1035L31.3037 20.7315L22.0117 20.7115V20.7135Z" fill="white"/>
<path d="M23.0127 19.7892V13.2192H28.5847V14.7322H24.8167V15.7602H28.4947V17.2482H24.8167V18.2582H28.5847V19.7892H23.0127Z" fill="#006FCF"/>
<path d="M28.5566 19.7893L31.6396 16.5003L28.5566 13.2183H30.9426L32.8266 15.3013L34.7166 13.2193H36.9996V13.2703L33.9826 16.5003L36.9996 19.6973V19.7903H34.6926L32.7756 17.6873L30.8776 19.7913H28.5566V19.7893Z" fill="#006FCF"/>
<path d="M22.71 4.81738H26.324L27.593 7.69838V4.81738H32.053L32.823 6.97638L33.594 4.81738H37V13.2384H19L22.71 4.81738Z" fill="white"/>
<path d="M23.3945 5.73242L20.4785 12.2984H22.4785L23.0285 10.9834H26.0085L26.5585 12.2984H28.6085L25.7045 5.73242H23.3945ZM23.6445 9.50942L24.5195 7.41942L25.3925 9.50942H23.6445Z" fill="#006FCF"/>
<path d="M28.5811 12.2975V5.73047L31.3921 5.74047L32.8401 9.77747L34.2961 5.73147H37.0001V12.2965L35.2601 12.3125V7.80247L33.6161 12.2965H32.0261L30.3501 7.78747V12.2975H28.5821H28.5811Z" fill="#006FCF"/>
</g>
<defs>
<clipPath id="clip0_6701_2056">
<rect width="38" height="24" fill="white" transform="translate(0 0.777344)"/>
</clipPath>
</defs>
</svg>
